<svg xmlns="http://www.w3.org/2000/svg" xmlns:xlink="http://www.w3.org/1999/xlink" version="1.1" x="0px" y="0px" viewBox="0 0 100 125" style="enable-background:new 0 0 100 100;" xml:space="preserve"><g><path d="M49.955,42.525c-6.384,0-11.579,5.194-11.579,11.579c0,6.384,5.194,11.578,11.579,11.578s11.579-5.194,11.579-11.578   C61.533,47.72,56.339,42.525,49.955,42.525z M49.955,61.683c-4.179,0-7.579-3.399-7.579-7.578s3.4-7.579,7.579-7.579   s7.579,3.4,7.579,7.579S54.133,61.683,49.955,61.683z"/><path d="M16.582,65.683c6.384,0,11.579-5.194,11.579-11.578c0-6.385-5.194-11.579-11.579-11.579S5.003,47.72,5.003,54.104   C5.003,60.488,10.198,65.683,16.582,65.683z M16.582,46.525c4.179,0,7.579,3.4,7.579,7.579s-3.4,7.578-7.579,7.578   s-7.579-3.399-7.579-7.578S12.403,46.525,16.582,46.525z"/><path d="M83.418,65.683c6.384,0,11.579-5.194,11.579-11.578c0-6.385-5.194-11.579-11.579-11.579S71.839,47.72,71.839,54.104   C71.839,60.488,77.034,65.683,83.418,65.683z M83.418,46.525c4.179,0,7.579,3.4,7.579,7.579s-3.4,7.578-7.579,7.578   s-7.579-3.399-7.579-7.578S79.239,46.525,83.418,46.525z"/><path d="M88.158,67.274l-6.345-0.002c-0.001,0-0.003,0-0.004,0c-2.843,0-5.546,1.229-7.417,3.369l-5.238,5.995   c-0.72,0.825-1.735,1.31-2.818,1.401v-3.048c0-4.249-3.457-7.706-7.706-7.706c0,0.001-0.889,0.001-1.139-0.005   c-0.043-0.003-0.116-0.03-0.129-0.004l-16.067,0.009c-4.26,0-7.725,3.457-7.725,7.706v3.038c-1.046-0.113-2.023-0.59-2.723-1.392   l-5.237-5.994c-1.871-2.142-4.575-3.369-7.417-3.369c-0.001,0-0.002,0-0.004,0l-6.345,0.002C8.07,67.274,5,70.34,5,74.107v18.231   c0,1.104,0.896,2,2,2s2-0.896,2-2V74.107c0-1.563,1.275-2.833,2.843-2.833l6.346-0.002c0.001,0,0.001,0,0.002,0   c1.688,0,3.294,0.729,4.406,2.002l5.237,5.993c1.558,1.784,3.811,2.808,6.181,2.808h1.544c0.003,0,0.006,0.001,0.01,0.001   s0.006-0.001,0.01-0.001h3.355c0.841,0,1.525,0.685,1.525,1.525s-0.684,1.524-1.525,1.524h-8.441c-0.564,0-1.104-0.208-1.522-0.584   l-5.875-5.301c-0.82-0.741-2.084-0.675-2.825,0.145c-0.74,0.82-0.675,2.085,0.145,2.824l1.741,1.571v8.559c0,1.104,0.896,2,2,2   s2-0.896,2-2V87.39l0.134,0.121c0.643,0.58,1.396,0.997,2.202,1.269v3.56c0,1.104,0.896,2,2,2s2-0.896,2-2v-3.214h6.441   c0.08,0,0.158-0.009,0.237-0.012c0.082,0.004,0.165,0.012,0.247,0.012h21.07c0.094,0,0.176-0.011,0.26-0.016   c0.106,0.006,0.211,0.016,0.319,0.016h6.441v3.214c0,1.104,0.896,2,2,2s2-0.896,2-2v-3.56c0.805-0.271,1.559-0.689,2.202-1.269   l0.134-0.121v4.949c0,1.104,0.896,2,2,2s2-0.896,2-2V83.78l1.741-1.571c0.82-0.739,0.885-2.004,0.145-2.824   c-0.74-0.819-2.005-0.886-2.825-0.145l-5.875,5.3c-0.417,0.377-0.958,0.585-1.522,0.585h-8.441c-0.841,0-1.525-0.684-1.525-1.524   s0.684-1.525,1.525-1.525h3.258c0.003,0,0.006,0.001,0.01,0.001s0.006-0.001,0.01-0.001h1.641c2.37,0,4.623-1.023,6.18-2.807   l5.237-5.994c1.112-1.272,2.717-2.002,4.406-2.002c0,0,0.001,0,0.002,0l6.346,0.002c1.567,0,2.843,1.271,2.843,2.833v18.231   c0,1.104,0.896,2,2,2s2-0.896,2-2V74.107C95,70.34,91.93,67.274,88.158,67.274z M55.542,83.601c0,0.53,0.079,1.04,0.219,1.525   l-11.523,0.002c0.14-0.486,0.22-0.997,0.22-1.527c0-3.047-2.479-5.525-5.525-5.525h-1.364v-3.086c0-2.044,1.671-3.706,3.725-3.706   l16.069-0.009v-0.04c0.426,0.049,0.867,0.049,1.266,0.049c2.043,0,3.706,1.662,3.706,3.706v3.086h-1.268   C58.021,78.075,55.542,80.554,55.542,83.601z"/><path d="M42.138,22.274c-0.502,2.748,0.457,5.528,2.47,7.362v2.433c0,2.054,1.458,3.773,3.393,4.178   c0.197,0.897,0.995,1.57,1.951,1.57s1.754-0.672,1.951-1.57c1.935-0.406,3.393-2.124,3.393-4.178v-2.432   c1.647-1.497,2.605-3.627,2.605-5.884c0-4.383-3.566-7.949-7.949-7.949c-0.523,0-1.052,0.052-1.574,0.152   C45.223,16.569,42.715,19.108,42.138,22.274z M51.296,31.292v0.777c0,0.149-0.121,0.271-0.27,0.271h-2.149   c-0.148,0-0.27-0.121-0.27-0.271v-0.777H51.296z M46.073,22.992c0.279-1.533,1.541-2.812,3.067-3.108   c0.271-0.052,0.544-0.079,0.812-0.079c2.178,0,3.949,1.771,3.949,3.949c0,1.307-0.647,2.528-1.731,3.268   c-0.115,0.078-0.214,0.172-0.308,0.271h-3.819c-0.095-0.098-0.194-0.193-0.309-0.271C46.419,26.126,45.783,24.582,46.073,22.992z"/><path d="M32.057,23.557c0,1.104,0.896,2,2,2h3.625c1.104,0,2-0.896,2-2s-0.896-2-2-2h-3.625   C32.952,21.557,32.057,22.452,32.057,23.557z"/><path d="M65.848,25.557c1.104,0,2-0.896,2-2s-0.896-2-2-2h-3.625c-1.104,0-2,0.896-2,2s0.896,2,2,2H65.848z"/><path d="M59.778,10.903l-2.563,2.563c-0.781,0.781-0.781,2.047,0,2.828c0.39,0.391,0.902,0.586,1.414,0.586   s1.024-0.195,1.414-0.586l2.563-2.563c0.781-0.781,0.781-2.047,0-2.828C61.826,10.122,60.558,10.122,59.778,10.903z"/><path d="M49.952,13.286c1.104,0,2-0.896,2-2V7.661c0-1.104-0.896-2-2-2s-2,0.896-2,2v3.625   C47.952,12.391,48.848,13.286,49.952,13.286z"/><path d="M40.127,10.903c-0.781-0.781-2.047-0.781-2.829,0c-0.781,0.78-0.781,2.047,0,2.828l2.563,2.563   c0.391,0.391,0.902,0.586,1.415,0.586c0.512,0,1.023-0.195,1.414-0.586c0.781-0.78,0.781-2.047,0-2.828L40.127,10.903z"/></g></svg>